<svg width="147" height="239" viewBox="0 0 147 239" fill="none" xmlns="http://www.w3.org/2000/svg">
<path fill-rule="evenodd" clip-rule="evenodd" d="M-17.498 123.921L-17.6117 123.477L-17.8617 123.043L-18.2459 122.614L-18.7635 122.185L-19.4146 121.753L-20.1999 121.314L-21.1211 120.864L-22.1806 120.397L-23.381 119.911L-24.7254 119.401L-26.2173 118.863L-27.86 118.291L-29.6568 117.681L-31.6106 117.029L-33.7234 116.329L-35.9966 115.576L-38.43 114.765L-41.0217 113.891L-43.7675 112.95L-46.6606 111.938L-49.6908 110.85L-52.8444 109.684L-56.1031 108.438L-59.4439 107.112L-62.8389 105.707L-66.2547 104.226L-69.6527 102.675L-72.9892 101.062L-76.2161 99.3974L-79.2819 97.6945L-82.1326 95.9693L-84.7138 94.2401L-86.9724 92.5273L-88.8587 90.8527L-90.3287 89.2389L-91.3461 87.7082L-91.884 86.2822L-91.9268 84.9805L-91.4703 83.8199L-90.5227 82.8141L-89.104 81.9725L-87.2445 81.3006L-84.9839 80.7994L-82.3689 80.466L-79.4513 80.2935L-76.2857 80.272L-72.9274 80.3888L-69.4306 80.6296L-65.8463 80.9785L-62.222 81.4193L-58.6 81.9356L-55.0174 82.5116L-51.5057 83.1321L-48.0909 83.7832L-44.7937 84.4521L-41.6301 85.1274L-38.6118 85.799L-35.7466 86.4583L-33.0391 87.0977L-30.4913 87.7109L-28.103 88.2927L-25.8721 88.8388L-23.7953 89.3455L-21.8683 89.8099L-20.0861 90.2297L-18.4433 90.603L-16.9341 90.9282L-15.5529 91.2039L-14.2939 91.429L-13.1516 91.6026L-12.1206 91.7234L-11.1961 91.7906L-10.3733 91.8031L-9.64788 91.7596L-9.01594 91.6589L-8.47392 91.4994L-8.01866 91.2794L-7.64738 90.997L-7.35766 90.6501L-7.14745 90.236L-7.01506 89.7521L-6.95911 89.1952L-6.97851 88.5621L-7.07245 87.8488L-7.24042 87.0514L-7.48207 86.1653L-7.79724 85.1858L-8.1859 84.1079L-8.64812 82.9262L-9.18395 81.635L-9.79337 80.2285L-10.4762 78.7009L-11.2322 77.0463L-12.0604 75.2589L-12.9595 73.3333L-13.9278 71.2647L-14.9623 69.049L-16.0593 66.6833L-17.2137 64.1663L-18.4192 61.4983L-19.6676 58.6823L-20.949 55.724L-22.2514 52.6326L-23.5607 49.421L-24.8605 46.1069L-26.1321 42.7125L-27.3547 39.2654L-28.5056 35.7983L-29.5605 32.3492L-30.4942 28.9609L-31.2812 25.6803L-31.8966 22.5575L-32.317 19.6439L-32.5217 16.9914L-32.4935 14.6496L-32.2199 12.6642L-31.6937 11.0747L-30.9136 9.91296L-29.8848 9.20096L-28.6183 8.95022L-27.1311 9.16113L-25.4451 9.8229L-23.5865 10.9143L-21.5841 12.4047L-19.4687 14.2559L-17.2714 16.424L-15.0226 18.861L-12.7513 21.5171L-10.4839 24.3428L-8.24376 27.2898L-6.05109 30.3127L-3.92253 33.3701L-1.87136 36.4246L0.0924623 39.4439L1.9619 42.4004L3.73263 45.2712L5.40262 48.0377L6.9718 50.6855L8.44161 53.2037L9.81482 55.5845L11.0951 57.8227L12.2868 59.9153L13.3949 61.8612L14.4244 63.6603L15.3807 65.3139L16.2691 66.8236L17.0951 68.1918L17.8636 69.4209L18.5799 70.5132L19.2487 71.4711L19.8747 72.2964L20.4625 72.9905L21.0163 73.5544L21.5404 73.9881L22.0387 74.291L22.5151 74.4615L22.9736 74.4967L23.4181 74.394L23.8529 74.1548L24.2824 73.7812L24.7109 73.2742L25.1423 72.6338L25.5808 71.8592L26.0304 70.9489L26.4952 69.9005L26.9794 68.7115L27.4874 67.3786L28.0236 65.8986L28.5925 64.268L29.1989 62.4836L29.8478 60.5424L30.544 58.4423L31.2927 56.1819L32.0987 53.7613L32.9671 51.1821L33.9026 48.4483L34.9094 45.5666L35.9912 42.5468L37.1509 39.4025L38.3904 36.1514L39.7101 32.8161L41.1089 29.4243L42.5838 26.0088L44.1294 22.6079L45.7378 19.2647L47.3989 16.0273L49.0992 12.9467L50.8233 10.0769L52.5529 7.47228L54.2678 5.18609L55.9463 3.26842L57.5658 1.7638L59.1039 0.709275L60.539 0.132416L61.8513 0.0499644L63.0236 0.466827L64.0422 1.37583L64.8971 2.75804L65.5826 4.58379L66.0973 6.81411L66.4439 9.40274L66.6289 12.2982L66.662 15.446L66.5556 18.791L66.3242 22.2788L65.9833 25.8578L65.5492 29.4806L65.0383 33.1042L64.4665 36.6911L63.849 40.2095L63.1998 43.6329L62.5319 46.9401L61.8568 50.1148L61.1845 53.145L60.524 56.0226L59.8828 58.7427L59.2672 61.3032L58.6828 63.7042L58.1337 65.9476L57.6238 68.0365L57.1559 69.9752L56.7325 71.7688L56.3554 73.4225L56.0263 74.9421L55.7466 76.3333L55.5174 77.6018L55.3397 78.7532L55.2146 79.7929L55.1431 80.7257L55.1263 81.5564L55.1652 82.2895L55.2614 82.9287L55.4161 83.4778L55.6312 83.9398L55.9085 84.3177L56.2503 84.6138L56.6589 84.8303L57.1372 84.9688L57.6881 85.0308L58.315 85.0174L59.0218 84.9294L59.8124 84.7673L60.6912 84.5315L61.663 84.2222L62.7329 83.8394L63.9062 83.383L65.1884 82.8531L66.5855 82.2495L68.1032 81.5724L69.7476 80.8223L71.5242 79.9998L73.4386 79.1063L75.4957 78.1434L77.6995 77.1141L80.0531 76.0219L82.5581 74.8718L85.2141 73.6701L88.0185 72.4248L90.9658 71.1456L94.0471 69.8444L97.2496 68.535L100.556 67.2338L103.945 65.9593L107.389 64.732L110.856 63.5745L114.308 62.5111L117.703 61.5667L120.994 60.7671L124.131 60.1372L127.063 59.7004L129.739 59.4779L132.107 59.487L134.122 59.7408L135.744 60.2468L136.941 61.0067L137.69 62.016L137.977 63.2642L137.803 64.7345L137.176 66.4056L136.118 68.2515L134.658 70.2435L132.834 72.3511L130.69 74.543L128.272 76.7887L125.632 79.0592L122.818 81.3279L119.879 83.571L116.86 85.7681L113.804 87.9023L110.748 89.96L107.725 91.9311L104.763 93.8082L101.884 95.5869L99.1088 97.265L96.4511 98.8421L93.9223 100.32L91.5304 101.701L89.2807 102.988L87.1764 104.187L85.2188 105.301L83.408 106.337L81.7429 107.299L80.2218 108.192L78.8424 109.023L77.6023 109.796L76.4992 110.516L75.5307 111.189L74.695 111.818L73.9904 112.409L73.4162 112.965L72.9721 113.491L72.6587 113.991L72.4776 114.47L72.4314 114.929L72.5232 115.375L72.7516 115.81L73.1146 116.24L73.611 116.668L74.2407 117.099L75.0045 117.537L75.904 117.986L76.9413 118.449L78.119 118.932L79.4403 119.438L80.9085 119.971L82.527 120.537L84.299 121.141L86.2276 121.786L88.315 122.478L90.5626 123.223L92.9705 124.024L95.5372 124.887L98.2589 125.817L101.129 126.818L104.138 127.894L107.273 129.047L110.517 130.28L113.846 131.594L117.235 132.986L120.65 134.455L124.053 135.995L127.403 137.599L130.65 139.257L133.745 140.954L136.634 142.677L139.262 144.407L141.575 146.124L143.524 147.806L145.063 149.431L146.154 150.977L146.77 152.421L146.892 153.743L146.515 154.927L145.645 155.959L144.299 156.827L142.507 157.526L140.308 158.054L137.746 158.414L134.873 158.611L131.743 158.656L128.412 158.561L124.933 158.338L121.36 158.006L117.739 157.578L114.114 157.073L110.523 156.506L106.998 155.891L103.566 155.244L100.249 154.577L97.0633 153.902L94.0212 153.229L91.1312 152.568L88.3984 151.925L85.8252 151.307L83.4116 150.72L81.1558 150.168L79.0547 149.655L77.1042 149.183L75.2993 148.756L73.6346 148.375L72.1045 148.042L70.7033 147.759L69.4252 147.525L68.2647 147.344L67.2164 147.214L66.2752 147.138L65.4365 147.117L64.6958 147.152L64.0493 147.243L63.4931 147.393L63.0243 147.603L62.6398 147.876L62.3372 148.212L62.1145 148.615L61.9698 149.088L61.9017 149.633L61.9092 150.254L61.9913 150.954L62.1475 151.738L62.3774 152.609L62.6809 153.574L63.0579 154.636L63.5084 155.8L64.0325 157.074L64.6302 158.462L65.3014 159.969L66.0457 161.603L66.8624 163.369L67.7504 165.273L68.7078 167.318L69.732 169.51L70.8193 171.852L71.965 174.345L73.1629 176.989L74.405 179.782L75.682 182.718L76.9819 185.789L78.2912 188.982L79.5937 192.281L80.8711 195.665L82.103 199.105L83.2668 202.572L84.3387 206.026L85.2934 209.427L86.1055 212.728L86.7498 215.88L87.2028 218.83L87.4431 221.528L87.453 223.922L87.219 225.967L86.7333 227.622L85.9935 228.854L85.0037 229.638L83.774 229.963L82.3206 229.825L80.6647 229.234L78.8317 228.209L76.8502 226.78L74.7507 224.983L72.5643 222.863L70.3218 220.465L68.0523 217.841L65.7825 215.039L63.5366 212.108L61.3352 209.094L59.1954 206.04L57.1312 202.982L55.1529 199.955L53.2681 196.987L51.4814 194.101L49.7953 191.317L48.2102 188.65L46.7247 186.11L45.3363 183.707L44.0416 181.446L42.836 179.33L41.715 177.361L40.6733 175.538L39.7057 173.862L38.8068 172.329L37.9713 170.939L37.1939 169.688L36.4697 168.574L35.7936 167.595L35.1611 166.748L34.5675 166.033L34.0086 165.449L33.48 164.994L32.9779 164.67L32.4982 164.479L32.0371 164.422L31.5907 164.502L31.1547 164.72L30.7246 165.072L30.2962 165.558L29.8655 166.177L29.4285 166.93L28.9809 167.819L28.5188 168.845L28.0379 170.012L27.5341 171.321L27.0027 172.778L26.4393 174.384L25.8391 176.144L25.1974 178.06L24.509 180.135L23.7691 182.369L22.9725 184.765L22.1143 187.319L21.1898 190.028L20.1947 192.887L19.1251 195.886L17.9779 199.011L16.7512 202.247L15.4442 205.57L14.0578 208.955L12.5948 212.369L11.06 215.775L9.46092 219.131L7.80749 222.388L6.11236 225.497L4.3909 228.404L2.66089 231.055L0.942251 233.395L-0.743502 235.375L-2.37394 236.948L-3.9265 238.076L-5.37937 238.731L-6.71245 238.892L-7.90808 238.555L-8.9519 237.723L-9.83336 236.415L-10.5461 234.657L-11.0879 232.488L-11.4609 229.953L-11.6711 227.103L-11.7276 223.992L-11.6426 220.675L-11.43 217.206L-11.1055 213.638L-10.6851 210.02L-10.1854 206.393L-9.62222 202.798L-9.01102 199.267L-8.36602 195.827L-7.7003 192.5L-7.02557 189.303L-6.35224 186.25L-5.68932 183.347L-5.04455 180.602L-4.42455 178.016L-3.83478 175.59L-3.27985 173.321L-2.76347 171.208L-2.28871 169.246L-1.85805 167.429L-1.4735 165.754L-1.13671 164.213L-0.849042 162.802L-0.611709 161.514L-0.425771 160.345L-49.5568 233.732L-0.212096 158.338L-0.186454 157.491L-0.216449 156.743L-0.303387 156.089L-0.448703 155.526L-0.654051 155.05L-0.92133 154.659L-1.25267 154.35L-1.65046 154.121L-2.11741 153.97L-2.65654 153.896L-3.27116 153.897L-3.96493 153.974L-4.74189 154.124L-5.60635 154.348L-6.56303 154.646L-7.61695 155.017L-8.77338 155.461L-10.0379 155.98L-11.4163 156.571L-12.9144 157.237L-14.5382 157.975L-16.2934 158.786L-18.1855 159.669L-20.2195 160.621L-22.3998 161.64L-24.7294 162.722L-27.2102 163.863L-29.8423 165.057L-32.6234 166.296L-35.5484 167.571L-38.6091 168.869L-41.7933 170.179L-45.0848 171.482L-48.4623 172.762L-51.8996 173.999L-55.3652 175.169L-58.8223 176.249L-62.2292 177.214L-65.54 178.038L-68.7052 178.697L-71.6735 179.166L-74.393 179.424L-76.8133 179.453L-78.8878 179.238L-80.575 178.773L-81.8414 178.053L-82.6623 177.083L-83.0237 175.872L-82.9224 174.436L-82.3668 172.795L-81.3757 170.975L-79.9774 169.004L-78.2085 166.913L-76.1119 164.733L-73.7347 162.493L-71.1263 160.225L-68.3366 157.954L-65.4144 155.706L-62.4057 153.5L-59.353 151.355L-56.2947 149.284L-53.2642 147.299L-50.2905 145.406L-47.3974 143.612L-44.6045 141.918L-41.9272 140.324L-39.3773 138.831L-36.9631 137.435L-34.6905 136.133L-32.5629 134.921L-30.582 133.793L-28.7478 132.745L-27.0596 131.772L-25.5157 130.868L-24.1139 130.027L-22.8518 129.245L-21.727 128.517L-20.7373 127.837L-19.8805 127.202L-19.1551 126.605L-18.5602 126.044L-18.0953 125.513L-17.761 125.009L-17.5587 124.527L-17.4908 124.065L-17.498 123.921Z" fill="white"/>
</svg>
