<svg width="173" height="297" viewBox="0 0 173 297" fill="none" xmlns="http://www.w3.org/2000/svg">
<path fill-rule="evenodd" clip-rule="evenodd" d="M158.142 202.535L157.615 202.714L157.112 203.058L156.627 203.564L156.156 204.231L155.693 205.061L155.234 206.054L154.773 207.213L154.307 208.54L153.83 210.041L153.336 211.718L152.822 213.577L152.282 215.622L151.711 217.857L151.102 220.286L150.45 222.913L149.748 225.739L148.992 228.765L148.174 231.988L147.289 235.404L146.331 239.006L145.295 242.781L144.175 246.713L142.968 250.779L141.671 254.953L140.284 259.2L138.807 263.479L137.244 267.743L135.599 271.938L133.881 276.005L132.102 279.88L130.276 283.497L128.421 286.787L126.554 289.685L124.7 292.128L122.88 294.06L121.119 295.436L119.441 296.221L117.867 296.394L116.417 295.949L115.109 294.894L113.957 293.253L112.969 291.061L112.151 288.367L111.503 285.228L111.022 281.707L110.701 277.871L110.53 273.789L110.496 269.527L110.586 265.149L110.782 260.714L111.071 256.275L111.436 251.878L111.861 247.563L112.332 243.363L112.836 239.303L113.36 235.405L113.893 231.683L114.425 228.148L114.948 224.806L115.454 221.66L115.937 218.711L116.391 215.955L116.812 213.39L117.196 211.011L117.539 208.811L117.838 206.785L118.092 204.925L118.297 203.225L118.453 201.677L118.557 200.276L118.608 199.015L118.603 197.888L118.541 196.89L118.421 196.014L118.24 195.257L117.996 194.615L117.687 194.084L117.31 193.66L116.863 193.341L116.341 193.125L115.742 193.009L115.062 192.993L114.296 193.076L113.44 193.256L112.489 193.534L111.437 193.91L110.279 194.383L109.009 194.955L107.619 195.625L106.104 196.395L104.455 197.265L102.667 198.235L100.731 199.305L98.6415 200.476L96.3909 201.745L93.9732 203.112L91.3835 204.572L88.6177 206.123L85.6738 207.757L82.5516 209.467L79.254 211.242L75.7869 213.071L72.1604 214.938L68.3889 216.825L64.4921 218.709L60.4955 220.567L56.4303 222.37L52.3343 224.089L48.2512 225.689L44.2304 227.136L40.3266 228.396L36.598 229.433L33.105 230.214L29.9083 230.709L27.0667 230.893L24.6342 230.746L22.6583 230.256L21.1771 229.419L20.2181 228.238L19.7962 226.726L19.9134 224.903L20.5586 222.798L21.7085 220.443L23.3289 217.877L25.3761 215.139L27.7999 212.274L30.5448 209.32L33.5534 206.319L36.7679 203.307L40.1319 200.317L43.5925 197.377L47.1007 194.512L50.6127 191.741L54.0902 189.079L57.5003 186.537L60.8156 184.123L64.014 181.841L67.0778 179.692L69.9938 177.675L72.7521 175.789L75.3463 174.028L77.7723 172.388L80.0281 170.864L82.1133 169.448L84.0289 168.135L85.7765 166.917L87.3583 165.788L88.7767 164.742L90.0342 163.772L91.1331 162.872L92.0753 162.036L92.8621 161.259L93.4941 160.535L93.9711 159.859L94.2919 159.227L94.4542 158.633L94.4543 158.074L94.2883 157.545L93.9578 157.04L93.4649 156.554L92.8103 156.082L91.9938 155.619L91.0139 155.159L89.8684 154.699L88.5542 154.233L87.0675 153.757L85.4043 153.265L83.5601 152.753L81.5303 152.215L79.3105 151.646L76.8968 151.04L74.2859 150.392L71.4758 149.695L68.4661 148.943L65.2584 148.131L61.8571 147.251L58.2698 146.299L54.508 145.269L50.588 144.156L46.5312 142.956L42.3648 141.667L38.1225 140.287L33.8445 138.817L29.5774 137.26L25.3747 135.621L21.295 133.909L17.402 132.135L13.7623 130.312L10.4435 128.458L7.51221 126.592L5.03101 124.735L3.05605 122.912L1.63437 121.146L0.801355 119.46L0.57915 117.876L0.975331 116.416L1.98247 115.097L3.57851 113.932L5.72806 112.931L8.38399 112.099L11.49 111.438L14.983 110.944L18.7961 110.61L22.8612 110.428L27.1111 110.383L31.4818 110.463L35.9142 110.652L40.3547 110.934L44.7566 111.293L49.0795 111.714L53.2902 112.182L57.3618 112.684L61.2735 113.206L65.0097 113.739L68.5598 114.272L71.9173 114.796L75.0788 115.304L78.044 115.788L80.8148 116.245L83.3947 116.669L85.7887 117.055L88.0025 117.402L90.0425 117.705L91.9154 117.962L93.628 118.172L95.1873 118.331L96.5997 118.44L97.8717 118.494L99.0093 118.494L100.018 118.437L100.903 118.322L101.669 118.146L102.32 117.907L102.86 117.603L103.293 117.232L103.62 116.79L103.844 116.274L103.968 115.681L103.991 115.008L103.917 114.249L103.744 113.4L103.474 112.457L103.106 111.414L102.641 110.264L102.077 109.003L101.415 107.623L100.653 106.118L99.7908 104.48L98.8286 102.703L97.766 100.78L96.6034 98.7026L95.3418 96.4649L93.9829 94.0608L92.5297 91.4849L90.9864 88.7333L89.3588 85.8035L87.6546 82.6955L85.8836 79.4117L84.0583 75.9578L82.1937 72.3435L80.3081 68.5829L78.4226 64.6953L76.5617 60.7055L74.7531 56.6445L73.0269 52.5494L71.4161 48.4635L69.9551 44.4358L68.6791 40.5206L67.6232 36.7758L66.8206 33.2619L66.3016 30.0394L66.0921 27.1674L66.212 24.7005L66.6743 22.6867L67.4841 21.165L68.6381 20.1637L70.1244 19.6988L71.9232 19.7732L74.0074 20.3771L76.3438 21.488L78.8948 23.0724L81.6198 25.0874L84.4768 27.4831L87.4246 30.2046L90.4231 33.1943L93.4356 36.3945L96.4287 39.7486L99.3735 43.2033L102.245 46.7094L105.025 50.2226L107.696 53.7041L110.248 57.1207L112.672 60.4444L114.965 63.6528L117.125 66.7279L119.151 69.656L121.048 72.4272L122.819 75.0346L124.468 77.4741L126.001 79.7435L127.425 81.8423L128.747 83.7713L129.972 85.5322L131.107 87.1271L132.16 88.5584L133.136 89.8287L134.041 90.9402L134.882 91.8948L135.664 92.6939L136.392 93.3382L137.071 93.8276L137.707 94.1609L138.303 94.3359L138.865 94.3491L139.396 94.1964L139.903 93.8789L140.39 93.3988L140.863 92.7571L141.327 91.9535L141.787 90.9867L142.247 89.8545L142.712 88.5539L143.187 87.0811L143.677 85.4321L144.188 83.6025L144.723 81.5877L145.29 79.3832L145.892 76.985L146.537 74.3899L147.23 71.5957L147.977 68.6019L148.785 65.4098L149.659 62.0237L150.605 58.4508L151.629 54.7024L152.735 50.7943L153.928 46.7474L155.21 42.5887L156.583 38.351L158.045 34.0742L159.595 29.8044L161.228 25.5944L162.934 21.5027L164.704 17.5924L166.524 13.9301L168.376 10.5832L170.242 7.61871L172.1 5.09951L173.927 3.0824L175.699 1.61517L177.392 0.734281L178.984 0.46297L180.455 0.809979L181.786 1.76908L182.964 3.31938L183.978 5.42643L184.824 8.044L185.498 11.1164L186.006 14.581L186.351 18.3711L186.546 22.4186L186.6 26.6561L186.53 31.0195L186.349 35.449L186.074 39.8908L185.721 44.2972L185.304 48.6277L184.839 52.8485L184.34 56.932L183.818 60.857L183.286 64.6077L182.753 68.1729L182.228 71.5459L181.719 74.723L181.232 77.7038L180.773 80.49L180.346 83.085L179.956 85.4935L179.607 87.7215L179.3 89.775L179.039 91.661L178.826 93.3862L178.662 94.9574L178.55 96.3812L178.49 97.6642L178.486 98.8122L178.539 99.831L178.649 100.726L178.821 101.501L179.054 102.161L179.353 102.71L179.719 103.151L180.155 103.486L180.664 103.719L181.251 103.85L181.918 103.882L182.67 103.815L183.511 103.65L184.447 103.388L185.482 103.028L186.623 102.57L187.875 102.014L189.245 101.36L190.74 100.606L192.367 99.7519L194.132 98.7977L196.044 97.7431L198.109 96.5884L200.333 95.3346L202.724 93.9834L205.286 92.5376L208.024 91.0013L210.939 89.3801L214.033 87.6817L217.303 85.9156L220.744 84.0941L224.346 82.232L228.095 80.3473L231.974 78.461L235.956 76.5972L240.013 74.7832L244.107 73.0494L248.195 71.4281L252.229 69.9539L256.156 68.6619L259.916 67.5872L263.451 66.7633L266.699 66.2207L269.6 65.9857L272.102 66.0788L274.153 66.5135L275.715 67.2957L276.759 68.4226L277.266 69.8831L277.235 71.6579L276.672 73.7205L275.601 76.0382L274.053 78.5735L272.07 81.2861L269.703 84.1342L267.005 87.0762L264.035 90.0721L260.849 93.0848L257.505 96.0806L254.057 99.0301L250.553 101.909L247.039 104.696L243.554 107.376L240.131 109.938L236.799 112.373L233.58 114.676L230.494 116.846L227.554 118.884L224.77 120.791L222.149 122.571L219.696 124.23L217.413 125.772L215.301 127.205L213.359 128.534L211.584 129.766L209.976 130.909L208.532 131.968L207.249 132.95L206.125 133.86L205.158 134.706L204.347 135.492L203.69 136.224L203.188 136.907L202.842 137.546L202.655 138.146L202.628 138.71L202.768 139.244L203.072 139.752L203.539 140.241L204.168 140.715L204.959 141.179L205.913 141.639L207.032 142.099L208.319 142.563L209.778 143.038L211.412 143.527L213.228 144.035L215.227 144.568L217.417 145.132L219.799 145.732L222.379 146.373L225.157 147.062L228.135 147.804L231.311 148.607L234.682 149.475L238.241 150.415L241.975 151.433L245.872 152.532L249.908 153.718L254.059 154.993L258.292 156.359L262.567 157.814L266.84 159.358L271.056 160.984L275.16 162.685L279.087 164.45L282.771 166.266L286.146 168.117L289.143 169.982L291.7 171.842L293.759 173.672L295.272 175.449L296.2 177.149L296.521 178.75L296.223 180.231L295.312 181.574L293.807 182.765L291.743 183.792L289.164 184.651L286.126 185.34L282.69 185.86L278.923 186.218L274.894 186.424L270.669 186.49L266.314 186.429L261.887 186.256L257.445 185.988L253.034 185.64L248.696 185.228L244.465 184.766L240.37 184.269L236.432 183.749L232.667 183.217L229.086 182.684L225.698 182.158L222.505 181.647L219.509 181.158L216.707 180.697L214.097 180.268L211.674 179.875L209.432 179.522L207.365 179.212L205.466 178.947L203.728 178.73L202.145 178.562L200.709 178.445L294.255 231.172L198.257 178.373L197.228 178.421L196.324 178.527L195.539 178.693L194.87 178.922L194.312 179.215L193.863 179.576L193.519 180.006L193.278 180.51L193.139 181.09L193.099 181.751L193.158 182.496L193.315 183.329L193.57 184.257L193.922 185.285L194.372 186.417L194.92 187.66L195.567 189.02L196.313 190.505L197.159 192.121L198.105 193.875L199.152 195.775L200.298 197.827L201.544 200.039L202.888 202.416L204.326 204.964L205.856 207.688L207.47 210.589L209.163 213.669L210.924 216.925L212.742 220.352L214.601 223.942L216.485 227.68L218.372 231.549L220.238 235.525L222.057 239.577L223.799 243.669L225.43 247.76L226.917 251.8L228.225 255.737L229.318 259.513L230.164 263.068L230.73 266.341L230.99 269.272L230.923 271.807L230.516 273.896L229.762 275.498L228.662 276.584L227.228 277.135L225.477 277.146L223.436 276.625L221.137 275.593L218.618 274.081L215.918 272.132L213.079 269.793L210.143 267.12L207.15 264.169L204.137 260.998L201.139 257.665L198.185 254.223L195.3 250.722L192.505 247.207L189.815 243.718L187.244 240.289L184.799 236.949L182.485 233.721L180.304 230.624L178.256 227.671L176.339 224.875L174.549 222.241L172.881 219.774L171.329 217.478L169.888 215.352L168.551 213.396L167.311 211.608L166.161 209.987L165.096 208.53L164.108 207.234L163.192 206.098L162.341 205.118L161.551 204.294L160.815 203.625L160.128 203.111L159.486 202.753L158.883 202.552L158.316 202.513L158.142 202.535Z" fill="white"/>
</svg>
