<svg width="535" height="555" viewBox="0 0 535 555" fill="none" xmlns="http://www.w3.org/2000/svg">
<path fill-rule="evenodd" clip-rule="evenodd" d="M35.1627 304.963L33.8439 302.771L32.5148 300.545L31.1778 298.286L29.8352 295.993L28.4894 293.666L27.1431 291.304L25.7985 288.907L24.4581 286.475L23.1243 284.007L21.7997 281.504L20.4867 278.966L19.1878 276.393L17.9059 273.785L16.644 271.142L15.405 268.466L14.1923 265.757L13.0089 263.016L11.8584 260.244L10.744 257.443L9.66901 254.612L8.63694 251.755L7.65103 248.872L6.71461 245.966L5.83098 243.038L5.00329 240.09L4.2346 237.124L3.52794 234.142L2.88631 231.148L2.31238 228.142L1.80897 225.129L1.37856 222.109L1.02363 219.087L0.746541 216.064L0.54939 213.044L0.434277 210.03L0.40317 207.023L0.457909 204.029L0.600206 201.049L0.831651 198.087L1.1537 195.146L1.56792 192.229L2.07546 189.34L2.67746 186.482L3.37452 183.659L4.16705 180.873L5.05502 178.128L6.03813 175.427L7.11562 172.771L8.28654 170.165L9.5495 167.609L10.903 165.107L12.345 162.659L13.8734 160.269L15.4855 157.936L17.179 155.663L18.9506 153.45L20.7971 151.298L22.7155 149.208L24.7019 147.178L26.7528 145.21L28.8643 143.303L31.0324 141.455L33.2531 139.667L35.5224 137.936L37.836 136.261L40.1898 134.64L42.5796 133.072L45.0011 131.553L47.4502 130.082L49.9229 128.655L52.4152 127.27L54.923 125.923L57.4427 124.611L59.9705 123.331L62.503 122.078L65.0366 120.85L67.5684 119.642L70.0953 118.45L72.6144 117.27L75.1232 116.098L77.6195 114.931L80.1009 113.763L82.5658 112.591L85.0124 111.411L87.4394 110.218L89.8457 109.01L92.2303 107.781L94.5927 106.529L96.9326 105.249L99.2497 103.939L101.544 102.594L103.817 101.213L106.067 99.7919L108.298 98.3285L110.508 96.8203L112.7 95.2652L114.875 93.6614L117.035 92.0072L119.182 90.3016L121.317 88.5433L123.443 86.7318L125.562 84.8667L127.676 82.9478L129.788 80.9754L131.9 78.9502L134.016 76.8729L136.138 74.7447L138.267 72.5671L140.409 70.342L142.564 68.0714L144.736 65.7577L146.927 63.404L149.141 61.0137L151.38 58.5909L153.647 56.1399L155.944 53.6658L158.275 51.1737L160.641 48.6694L163.045 46.1588L165.489 43.6483L167.974 41.1443L170.503 38.6538L173.076 36.1835L175.696 33.7407L178.362 31.3324L181.075 28.9659L183.836 26.6485L186.645 24.3874L189.501 22.1897L192.404 20.0626L195.352 18.0129L198.346 16.0474L201.382 14.1726L204.46 12.3949L207.578 10.7204L210.733 9.15457L213.923 7.70297L217.145 6.37067L220.396 5.16226L223.673 4.08211L226.973 3.13392L230.293 2.32123L233.629 1.64695L236.976 1.11371L240.333 0.723552L243.694 0.478196L247.056 0.378743L250.415 0.425987L253.766 0.620111L257.107 0.960995L260.434 1.44784L263.742 2.07956L267.027 2.85457L270.287 3.77075L273.518 4.82563L276.716 6.01625L279.879 7.33935L283.002 8.7911L286.085 10.3674L289.123 12.0639L292.115 13.8755L295.058 15.7973L297.951 17.8238L300.792 19.9493L303.58 22.1678L306.313 24.4732L308.991 26.8591L311.614 29.3189L314.181 31.846L316.692 34.4336L319.148 37.075L321.549 39.7631L323.897 42.4911L326.192 45.2521L328.437 48.0392L330.633 50.8456L332.782 53.6646L334.886 56.4897L336.948 59.3144L338.972 62.1325L340.958 64.938L342.912 67.7249L344.836 70.4878L346.734 73.2213L348.61 75.9204L350.466 78.5805L352.308 81.197L354.138 83.766L355.962 86.2838L357.782 88.747L359.604 91.1527L361.43 93.4983L363.266 95.7815L365.114 98.0007L366.979 100.154L368.864 102.241L370.774 104.261L372.711 106.214L374.679 108.099L376.681 109.918L378.72 111.671L380.798 113.36L382.918 114.986L385.083 116.55L387.294 118.057L389.553 119.507L391.862 120.904L394.22 122.252L396.63 123.552L399.092 124.81L401.606 126.029L404.171 127.214L406.787 128.367L409.454 129.495L412.17 130.6L414.933 131.69L417.742 132.767L420.593 133.837L423.486 134.905L426.416 135.976L429.381 137.054L432.377 138.144L435.401 139.251L438.449 140.38L441.517 141.535L444.6 142.72L447.694 143.939L450.795 145.197L453.898 146.496L456.998 147.841L460.09 149.235L463.17 150.68L466.233 152.179L469.274 153.736L472.288 155.351L475.271 157.027L478.218 158.765L481.124 160.566L483.985 162.432L486.798 164.364L489.558 166.36L492.262 168.422L494.906 170.55L497.486 172.742L500 174.999L502.444 177.32L504.815 179.704L507.109 182.15L509.325 184.657L511.46 187.223L513.511 189.847L515.476 192.527L517.352 195.261L519.138 198.049L520.831 200.887L522.431 203.773L523.935 206.706L525.343 209.683L526.652 212.702L527.863 215.76L528.975 218.854L529.986 221.983L530.896 225.143L531.706 228.333L532.415 231.549L533.023 234.788L533.53 238.048L533.937 241.327L534.244 244.621L534.452 247.928L534.562 251.245L534.574 254.57L534.491 257.9L534.313 261.233L534.041 264.565L533.677 267.895L533.223 271.22L532.68 274.537L532.051 277.845L531.336 281.141L530.538 284.423L529.659 287.689L528.701 290.937L527.667 294.165L526.558 297.371L525.377 300.554L524.126 303.711L522.808 306.842L521.425 309.944L519.979 313.017L518.474 316.058L516.91 319.068L515.292 322.044L513.622 324.985L511.901 327.891L510.134 330.761L508.321 333.595L506.466 336.39L504.572 339.147L502.64 341.866L500.674 344.546L498.675 347.186L496.647 349.786L494.591 352.347L492.511 354.868L490.408 357.348L488.285 359.79L486.145 362.191L483.989 364.553L481.82 366.877L479.639 369.161L477.451 371.408L475.256 373.617L473.056 375.789L470.855 377.924L468.654 380.025L466.455 382.091L464.261 384.123L462.074 386.123L459.896 388.092L457.729 390.03L455.575 391.94L453.437 393.822L451.316 395.679L449.214 397.511L447.134 399.321L445.077 401.109L443.045 402.879L441.04 404.631L439.065 406.367L437.119 408.09L435.206 409.802L433.327 411.505L431.483 413.201L429.675 414.892L427.906 416.58L426.175 418.269L424.485 419.959L422.836 421.654L421.228 423.356L419.664 425.068L418.143 426.791L416.665 428.529L415.232 430.283L413.842 432.056L412.496 433.85L411.192 435.667L409.932 437.509L408.712 439.377L407.533 441.274L406.392 443.201L405.289 445.159L404.221 447.149L403.186 449.173L402.182 451.231L401.206 453.323L400.257 455.451L399.331 457.613L398.425 459.81L397.537 462.041L396.662 464.307L395.799 466.605L394.942 468.935L394.09 471.296L393.238 473.685L392.384 476.102L391.522 478.543L390.65 481.006L389.764 483.49L388.861 485.99L387.936 488.505L386.987 491.03L386.01 493.563L385.001 496.099L383.958 498.634L382.878 501.166L381.756 503.689L380.591 506.2L379.38 508.694L378.121 511.166L376.81 513.612L375.447 516.027L374.029 518.407L372.554 520.747L371.022 523.043L369.431 525.289L367.779 527.481L366.067 529.614L364.295 531.685L362.461 533.688L360.566 535.62L358.61 537.476L356.594 539.253L354.519 540.947L352.385 542.555L350.195 544.072L347.95 545.497L345.651 546.827L343.3 548.059L340.901 549.191L338.454 550.221L335.963 551.149L333.431 551.972L330.86 552.691L328.253 553.304L325.613 553.812L322.944 554.215L320.25 554.514L317.532 554.71L314.795 554.804L312.043 554.799L309.278 554.696L306.503 554.499L303.723 554.208L300.941 553.828L298.158 553.361L295.379 552.81L292.607 552.18L289.844 551.475L287.093 550.697L284.357 549.851L281.637 548.943L278.937 547.976L276.258 546.955L273.602 545.885L270.972 544.771L268.368 543.618L265.791 542.432L263.244 541.217L260.727 539.978L258.24 538.722L255.784 537.452L253.36 536.174L250.967 534.892L248.606 533.612L246.275 532.338L243.976 531.073L241.706 529.823L239.465 528.589L237.252 527.377L235.066 526.188L232.906 525.025L230.77 523.89L228.658 522.785L226.567 521.713L224.496 520.674L222.443 519.671L220.408 518.706L218.387 517.778L216.38 516.89L214.385 516.042L212.399 515.235L210.422 514.469L208.451 513.745L206.485 513.062L204.522 512.42L202.56 511.819L200.598 511.258L198.634 510.737L196.667 510.254L194.695 509.808L192.717 509.397L190.731 509.02L188.737 508.675L186.734 508.359L184.72 508.072L182.695 507.809L180.658 507.569L178.608 507.349L176.546 507.145L174.472 506.956L172.384 506.778L170.283 506.607L168.17 506.441L166.045 506.276L163.908 506.11L161.76 505.937L159.602 505.756L157.435 505.562L155.261 505.353L153.08 505.124L150.894 504.874L148.705 504.597L146.514 504.292L144.323 503.956L142.134 503.584L139.949 503.176L137.771 502.727L135.601 502.235L133.441 501.699L131.294 501.116L129.162 500.483L127.048 499.8L124.953 499.065L122.88 498.276L120.831 497.432L118.809 496.533L116.815 495.577L114.852 494.565L112.921 493.496L111.025 492.37L109.165 491.188L107.343 489.95L105.56 488.657L103.817 487.31L102.116 485.91L100.458 484.459L98.8429 482.958L97.2717 481.409L95.7446 479.814L94.2619 478.176L92.8237 476.496L91.4299 474.776L90.0808 473.018L88.7763 471.225L87.5162 469.398L86.3006 467.538L85.1293 465.649L84.002 463.732L82.9184 461.788L81.8781 459.82L80.8806 457.829L79.9254 455.818L79.0117 453.787L78.1389 451.74L77.3061 449.677L76.5123 447.601L75.7567 445.513L75.038 443.415L74.3553 441.309L73.7073 439.196L73.0927 437.078L72.5103 434.957L71.9588 432.833L71.4369 430.709L70.9434 428.585L70.4769 426.462L70.0363 424.343L69.6205 422.226L69.2285 420.115L68.8592 418.008L68.5121 415.907L68.1862 413.813L67.8805 411.725L67.5941 409.644L67.3258 407.572L67.0743 405.508L66.8383 403.453L66.6163 401.408L66.4067 399.373L66.2079 397.349L66.0181 395.336L65.8355 393.336L65.6582 391.347L65.4843 389.371L65.3118 387.408L65.1387 385.458L64.9627 383.522L64.7819 381.598L64.5942 379.688L64.3973 377.792L64.1891 375.908L63.9676 374.038L63.7307 372.18L63.4763 370.334L63.2024 368.499L62.9071 366.676L62.5885 364.863L62.2448 363.06L61.8743 361.266L61.4755 359.479L61.0468 357.699L60.5867 355.924L60.0942 354.154L59.5679 352.387L59.007 350.622L58.4105 348.858L57.7777 347.092L57.1081 345.325L56.4012 343.553L55.6568 341.776L54.8748 339.992L54.0553 338.2L53.1983 336.397L52.3044 334.583L51.3741 332.755L50.408 330.913L49.4069 329.055L48.372 327.178L47.3042 325.282L46.2049 323.365L45.0754 321.426L43.9174 319.464L42.7324 317.476L41.5223 315.463L40.2888 313.422L39.034 311.352L37.76 309.253L36.4688 307.124L35.1627 304.963Z" fill="#123F67"/>
</svg>
