<svg width="503" height="498" viewBox="0 0 503 498" fill="none" xmlns="http://www.w3.org/2000/svg">
<path fill-rule="evenodd" clip-rule="evenodd" d="M44.5866 281.252L45.4224 278.313L46.0928 275.371L46.5974 272.42L46.938 269.45L47.1181 266.455L47.1432 263.429L47.0208 260.365L46.7599 257.257L46.3711 254.102L45.8666 250.894L45.2597 247.63L44.5646 244.309L43.7964 240.929L42.9704 237.49L42.1021 233.992L41.2068 230.435L40.2995 226.822L39.3958 223.156L38.5118 219.44L37.6643 215.679L36.8703 211.88L36.1463 208.048L35.5082 204.192L34.971 200.319L34.5488 196.439L34.2552 192.56L34.1038 188.693L34.1072 184.848L34.2778 181.037L34.6268 177.273L35.1647 173.566L35.9008 169.93L36.8434 166.377L37.9991 162.921L39.3733 159.574L40.9701 156.348L42.7918 153.255L44.8391 150.308L47.1112 147.515L49.6056 144.889L52.318 142.438L55.2429 140.169L58.3728 138.09L61.699 136.206L65.2111 134.522L68.8975 133.04L72.7455 131.762L76.7409 130.686L80.8689 129.812L85.1137 129.136L89.4586 128.652L93.8867 128.353L98.3805 128.232L102.922 128.278L107.495 128.48L112.079 128.824L116.66 129.298L121.218 129.885L125.739 130.569L130.207 131.332L134.606 132.158L138.924 133.025L143.147 133.917L147.264 134.812L151.266 135.692L155.143 136.537L158.889 137.327L162.497 138.043L165.964 138.667L169.286 139.182L172.462 139.57L175.493 139.815L178.38 139.904L181.127 139.823L183.738 139.559L186.218 139.104L188.575 138.447L190.817 137.582L192.951 136.504L194.989 135.209L196.941 133.695L198.817 131.962L200.63 130.013L202.391 127.85L204.113 125.479L205.808 122.908L207.488 120.143L209.165 117.197L210.851 114.08L212.558 110.805L214.297 107.388L216.079 103.844L217.913 100.19L219.809 96.4438L221.776 92.626L223.82 88.7561L225.949 84.8533L228.166 80.9357L230.478 77.0197L232.885 73.1207L235.389 69.2519L237.993 65.4253L240.695 61.6506L243.495 57.9365L246.392 54.2906L249.385 50.7197L252.472 47.2295L255.651 43.8255L258.92 40.5124L262.276 37.2951L265.717 34.1781L269.239 31.1658L272.84 28.2629L276.517 25.4738L280.266 22.8034L284.083 20.2564L287.965 17.8377L291.908 15.5525L295.908 13.4057L299.959 11.4024L304.057 9.54774L308.198 7.84656L312.375 6.30381L316.584 4.9241L320.818 3.71191L325.072 2.67133L329.34 1.80621L333.616 1.11994L337.892 0.615609L342.164 0.29567L346.423 0.16231L350.665 0.217001L354.882 0.460823L359.067 0.8943L363.215 1.51742L367.319 2.32955L371.372 3.32968L375.37 4.51611L379.304 5.88677L383.171 7.43905L386.964 9.16993L390.679 11.0759L394.309 13.1532L397.851 15.3974L401.299 17.8041L404.65 20.3685L407.899 23.0855L411.042 25.9497L414.077 28.9556L416.999 32.0977L419.806 35.3701L422.495 38.7669L425.064 42.2822L427.51 45.91L429.83 49.6443L432.025 53.4789L434.091 57.4077L436.027 61.4248L437.833 65.5238L439.507 69.6989L441.05 73.9437L442.46 78.2522L443.737 82.6182L444.882 87.0355L445.895 91.4977L446.778 95.9987L447.531 100.532L448.157 105.091L448.657 109.669L449.035 114.259L449.293 118.855L449.436 123.449L449.467 128.035L449.394 132.605L449.22 137.151L448.952 141.667L448.596 146.148L448.157 150.588L447.641 154.981L447.054 159.322L446.404 163.607L445.695 167.831L444.937 171.99L444.135 176.08L443.298 180.098L442.431 184.04L441.542 187.905L440.639 191.689L439.726 195.392L438.812 199.013L437.9 202.551L436.997 206.007L436.108 209.382L435.235 212.675L434.384 215.89L433.557 219.028L432.757 222.09L431.986 225.079L431.248 227.999L430.542 230.85L429.871 233.637L429.236 236.362L428.639 239.028L428.079 241.638L427.559 244.194L427.078 246.699L426.638 249.157L426.241 251.57L425.886 253.941L425.576 256.271L425.312 258.565L425.095 260.824L424.929 263.051L424.813 265.249L424.752 267.42L424.748 269.567L424.802 271.693L424.919 273.8L425.101 275.892L425.35 277.97L425.672 280.04L426.067 282.103L426.541 284.163L427.095 286.225L427.733 288.29L428.458 290.365L429.272 292.452L430.178 294.556L431.177 296.681L432.271 298.832L433.462 301.013L434.75 303.228L436.135 305.484L437.617 307.784L439.196 310.132L440.869 312.535L442.634 314.995L444.488 317.519L446.428 320.108L448.449 322.769L450.546 325.504L452.714 328.317L454.946 331.211L457.235 334.189L459.574 337.253L461.953 340.404L464.365 343.644L466.799 346.975L469.247 350.395L471.697 353.904L474.14 357.503L476.565 361.189L478.961 364.961L481.317 368.814L483.62 372.747L485.856 376.754L488.013 380.829L490.074 384.965L492.025 389.155L493.852 393.391L495.537 397.661L497.068 401.957L498.432 406.267L499.615 410.581L500.61 414.887L501.405 419.175L501.995 423.434L502.371 427.651L502.529 431.817L502.464 435.92L502.173 439.949L501.655 443.893L500.907 447.743L499.931 451.488L498.728 455.118L497.299 458.624L495.65 461.999L493.783 465.234L491.705 468.322L489.422 471.257L486.941 474.034L484.272 476.647L481.422 479.094L478.403 481.372L475.224 483.478L471.897 485.414L468.433 487.179L464.844 488.774L461.144 490.203L457.344 491.468L453.458 492.575L449.498 493.528L445.478 494.336L441.409 495.003L437.304 495.539L433.175 495.953L429.035 496.253L424.893 496.449L420.76 496.553L416.646 496.573L412.561 496.522L408.512 496.41L404.506 496.247L400.552 496.045L396.653 495.815L392.815 495.565L389.042 495.307L385.337 495.049L381.701 494.8L378.136 494.567L374.642 494.358L371.219 494.179L367.865 494.033L364.578 493.927L361.356 493.862L358.196 493.84L355.094 493.862L352.046 493.928L349.047 494.036L346.094 494.185L343.181 494.369L340.303 494.585L337.457 494.828L334.638 495.092L331.841 495.37L329.062 495.655L326.298 495.941L323.546 496.22L320.802 496.485L318.066 496.73L315.335 496.949L312.608 497.138L309.885 497.29L307.165 497.401L304.447 497.465L301.731 497.478L299.019 497.436L296.311 497.336L293.608 497.177L290.912 496.956L288.223 496.672L285.543 496.322L282.873 495.906L280.216 495.419L277.573 494.861L274.945 494.23L272.335 493.524L269.744 492.743L267.176 491.886L264.631 490.956L262.112 489.952L259.621 488.878L257.16 487.737L254.729 486.532L252.331 485.267L249.967 483.948L247.637 482.579L245.342 481.168L243.082 479.721L240.856 478.244L238.664 476.745L236.505 475.23L234.377 473.707L232.278 472.184L230.206 470.668L228.159 469.166L226.133 467.685L224.125 466.233L222.132 464.814L220.149 463.436L218.172 462.104L216.198 460.824L214.22 459.601L212.236 458.437L210.239 457.339L208.226 456.307L206.191 455.346L204.128 454.458L202.035 453.643L199.904 452.903L197.733 452.238L195.515 451.649L193.247 451.134L190.925 450.692L188.543 450.322L186.099 450.022L183.588 449.79L181.007 449.622L178.353 449.515L175.622 449.466L172.813 449.47L169.922 449.524L166.948 449.622L163.889 449.76L160.744 449.933L157.511 450.136L154.19 450.363L150.78 450.608L147.282 450.865L143.696 451.129L140.023 451.392L136.265 451.65L132.422 451.894L128.498 452.119L124.496 452.318L120.418 452.483L116.27 452.608L112.055 452.685L107.78 452.707L103.449 452.667L99.0709 452.558L94.6523 452.371L90.2017 452.099L85.7283 451.735L81.2424 451.272L76.7551 450.701L72.2787 450.016L67.8266 449.208L63.4126 448.271L59.0508 447.199L54.7546 445.987L50.5375 444.631L46.4129 443.127L42.3937 441.475L38.4929 439.671L34.7232 437.716L31.0967 435.61L27.6256 433.353L24.3213 430.949L21.195 428.398L18.257 425.705L15.5173 422.873L12.9848 419.908L10.6677 416.815L8.57329 413.599L6.70783 410.269L5.07648 406.832L3.68315 403.295L2.53058 399.666L1.62015 395.957L0.951909 392.174L0.524468 388.329L0.335061 384.43L0.379406 380.489L0.65178 376.515L1.14509 372.517L1.85071 368.507L2.75869 364.494L3.85774 360.486L5.13531 356.494L6.57762 352.525L8.16985 348.587L9.89611 344.688L11.7397 340.833L13.6831 337.03L15.7083 333.282L17.7967 329.594L19.9295 325.968L22.0876 322.407L24.2521 318.912L26.4041 315.483L28.5253 312.119L30.5978 308.819L32.6044 305.578L34.5289 302.395L36.3558 299.265L38.0714 296.182L39.6627 293.14L41.1186 290.133L42.4295 287.155L43.5875 284.197L44.5866 281.252Z" fill="#59A0C8"/>
</svg>
